<svg width="21" height="20" viewBox="0 0 21 20" fill="none" xmlns="http://www.w3.org/2000/svg">
<path d="M10.2774 7.16682C9.36076 7.16682 8.61076 7.91682 8.61076 8.83349C8.61076 9.75015 9.36076 10.5002 10.2774 10.5002C11.1941 10.5002 11.9441 9.75015 11.9441 8.83349C11.9441 7.91682 11.1941 7.16682 10.2774 7.16682ZM10.2774 3.00015C13.0024 3.00015 16.1108 5.05015 16.1108 8.95848C16.1108 11.4418 14.3358 14.0585 10.7858 16.7835C10.4858 17.0168 10.0691 17.0168 9.76909 16.7835C6.21909 14.0502 4.44409 11.4418 4.44409 8.95848C4.44409 5.05015 7.55243 3.00015 10.2774 3.00015Z" fill="#9D99E4"/>
</svg>
